<?xml version="1.0" standalone="no"?>
<!DOCTYPE svg PUBLIC "-//W3C//DTD SVG 20010904//EN"
 "http://www.w3.org/TR/2001/REC-SVG-20010904/DTD/svg10.dtd">
<svg version="1.0" xmlns="http://www.w3.org/2000/svg"
 width="1024.000000pt" height="1024.000000pt" viewBox="0 0 1024.000000 1024.000000"
 preserveAspectRatio="xMidYMid meet">
<metadata>
Created by potrace 1.14, written by Peter Selinger 2001-2017
</metadata>
<g transform="translate(0.000000,1024.000000) scale(0.100000,-0.100000)"
fill="#000000" stroke="none">
<path d="M5541 10227 c25 -6 57 -20 70 -30 l24 -18 -25 7 c-124 32 -587 57
-616 33 -12 -10 -17 -10 -23 -1 -5 9 -12 8 -27 -3 -10 -8 -27 -15 -36 -15 -10
0 -18 -4 -18 -8 0 -8 -128 -72 -144 -72 -17 0 43 41 76 52 37 12 58 26 58 39
0 5 -5 9 -11 9 -5 0 -7 -4 -4 -10 3 -5 -1 -10 -9 -10 -9 0 -41 -14 -72 -31
-31 -16 -59 -28 -62 -25 -2 3 -32 -10 -66 -29 -47 -26 -75 -35 -126 -38 -36
-2 -78 -10 -95 -17 -16 -7 -36 -12 -44 -11 -8 1 -10 -2 -6 -9 6 -9 -5 -11 -39
-9 -25 2 -46 0 -46 -5 0 -4 -9 -6 -20 -2 -11 3 -28 9 -38 12 -13 4 -19 0 -19
-10 0 -9 5 -16 11 -16 6 0 -1 -8 -14 -17 -29 -20 -97 -81 -155 -139 -22 -23
-55 -48 -72 -57 -17 -9 -41 -30 -53 -47 -12 -16 -27 -30 -34 -30 -7 0 -25 -13
-40 -29 -16 -16 -39 -32 -51 -35 -17 -4 -22 -11 -18 -26 4 -16 11 -19 39 -14
54 8 40 -9 -28 -35 -43 -16 -76 -38 -105 -67 -23 -24 -48 -44 -57 -44 -11 0
-14 -9 -12 -35 2 -27 -4 -43 -22 -62 -21 -23 -28 -38 -31 -65 -1 -5 -8 -8 -16
-8 -8 0 -20 -9 -27 -21 -7 -11 -33 -29 -58 -41 -32 -15 -40 -22 -27 -25 20 -5
22 -14 5 -31 -9 -9 -8 -12 5 -12 31 0 18 -19 -20 -30 -55 -15 -71 -31 -88 -86
-22 -72 -20 -93 8 -87 15 3 18 2 9 -5 -11 -7 -11 -12 2 -25 18 -17 18 -17 -49
-52 -21 -11 -34 -65 -16 -65 6 0 11 -4 11 -10 0 -5 -10 -10 -23 -10 -13 0 -31
-6 -41 -13 -16 -12 -15 -15 22 -41 51 -35 61 -56 27 -56 -14 0 -25 -4 -25 -9
0 -5 8 -7 18 -4 13 3 18 -2 18 -16 0 -25 2 -25 -41 -7 -31 13 -35 13 -35 0 0
-7 5 -14 10 -14 6 0 -1 -18 -15 -40 -14 -22 -20 -40 -14 -40 8 0 7 -6 -2 -17
-13 -15 -12 -16 6 -8 29 12 92 18 113 10 14 -5 10 -10 -20 -26 -40 -21 -50
-45 -20 -52 15 -3 15 -5 -3 -11 -91 -33 -109 -59 -55 -78 18 -6 32 -19 36 -34
3 -13 12 -29 20 -35 13 -10 12 -14 -2 -30 -9 -10 -13 -22 -10 -28 4 -6 1 -19
-5 -29 -18 -29 -4 -55 27 -49 20 4 24 1 18 -12 -14 -31 -16 -91 -4 -106 7 -8
10 -21 7 -29 -12 -31 -19 -176 -9 -176 6 0 16 -16 22 -35 16 -48 28 -52 56
-19 l23 29 1 -27 c0 -16 -4 -28 -10 -28 -5 0 -10 -9 -10 -20 0 -11 4 -20 9
-20 11 0 21 -59 11 -65 -4 -3 -8 -33 -8 -67 -1 -45 4 -68 15 -81 27 -29 6 -68
-52 -95 -65 -31 -82 -47 -110 -102 -27 -54 -34 -96 -45 -255 -6 -91 -5 -128 5
-152 8 -20 11 -53 8 -90 -4 -46 -2 -61 11 -72 10 -9 16 -29 16 -56 0 -26 6
-48 15 -55 8 -7 15 -23 15 -36 0 -12 11 -44 25 -70 14 -26 25 -53 25 -61 0 -8
9 -26 20 -40 11 -14 20 -34 20 -44 0 -9 3 -19 8 -21 4 -1 18 -23 31 -48 37
-69 58 -91 113 -123 50 -28 53 -29 107 -17 31 7 61 14 67 15 25 7 31 83 23
300 -13 349 -4 512 41 775 28 160 51 259 60 265 5 3 14 22 21 43 18 54 55 99
89 106 17 3 30 11 30 17 0 6 26 37 58 68 72 69 87 81 135 106 20 11 37 22 37
26 0 4 21 16 48 27 46 20 145 109 189 169 20 27 40 80 83 221 8 24 24 57 37
74 13 18 23 38 23 45 0 33 67 109 124 141 17 9 35 22 41 28 12 14 60 26 100
25 16 0 57 6 90 14 68 16 195 21 238 10 15 -4 33 -3 40 2 6 6 37 9 67 9 30 -1
63 2 73 7 11 5 23 4 30 -2 7 -5 74 -8 165 -7 83 2 152 1 152 -3 0 -3 27 -7 61
-8 33 -1 66 -5 72 -10 7 -5 32 -8 57 -6 82 6 108 5 131 -3 25 -8 37 -9 127
-12 33 -1 51 -6 47 -12 -3 -5 3 -10 14 -10 12 0 23 0 26 0 3 0 40 -19 82 -42
43 -23 90 -48 105 -55 69 -36 138 -152 138 -234 0 -21 5 -50 11 -66 10 -26 21
-96 20 -133 -2 -112 -8 -227 -13 -235 -8 -14 9 -183 23 -220 6 -16 17 -41 24
-55 38 -72 47 -143 52 -395 5 -209 -7 -515 -22 -595 -2 -8 -8 -49 -14 -90 -6
-41 -12 -88 -15 -105 -2 -16 -7 -40 -11 -52 -4 -14 -3 -23 3 -23 6 0 13 19 17
43 6 40 29 118 46 162 4 11 15 47 25 80 25 89 27 94 31 68 5 -26 57 -73 82
-73 26 0 45 43 38 87 -5 27 -19 49 -47 76 -45 43 -46 45 -25 107 8 25 17 71
20 103 5 39 11 57 21 57 7 0 23 17 34 38 20 37 36 53 100 95 40 26 48 39 103
178 8 19 29 51 46 71 17 20 31 40 31 46 0 11 36 89 80 172 16 30 29 63 29 73
1 9 7 16 14 15 15 -4 12 37 -5 69 -13 26 4 55 27 47 12 -5 35 42 35 74 0 8 8
21 17 27 12 9 17 26 17 54 -1 34 2 41 18 41 16 0 18 4 12 23 -4 12 -9 45 -10
72 -1 28 -5 64 -8 80 -17 82 -17 144 -1 176 15 29 16 41 5 107 -10 57 -10 76
-1 81 9 6 -2 41 -39 127 -27 65 -60 136 -73 157 -29 48 -136 157 -154 157 -7
0 -13 7 -13 15 0 9 -6 12 -15 8 -9 -3 -23 1 -33 10 -27 23 -77 46 -134 61 -32
8 -53 19 -53 27 0 8 -13 16 -30 19 l-30 5 0 125 c-1 72 -6 144 -14 170 -17 58
-70 163 -87 173 -8 4 -14 12 -14 18 0 10 -61 68 -73 69 -11 0 4 -50 25 -85 10
-16 18 -37 18 -45 -1 -11 -4 -9 -12 5 -17 30 -90 118 -111 134 -10 7 -34 37
-53 67 -39 61 -79 100 -185 180 -72 55 -136 90 -146 80 -3 -2 21 -22 54 -42
32 -21 84 -60 116 -86 32 -26 64 -51 71 -55 17 -11 76 -93 76 -107 0 -6 -35
24 -78 67 -42 42 -83 77 -90 77 -7 0 -10 5 -6 11 4 8 -1 9 -16 4 -20 -6 -22
-4 -16 11 4 10 4 15 0 12 -3 -4 -22 8 -40 27 -19 19 -37 35 -40 35 -4 0 -27
15 -53 33 -25 18 -67 44 -93 57 -53 26 -57 39 -7 21 60 -21 54 -11 -16 30 -38
22 -59 38 -45 34 52 -13 86 -16 70 -6 -27 17 -204 80 -225 81 -11 0 -85 2
-165 5 -127 4 -139 3 -99 -8z m132 -54 c-7 -2 -19 -2 -25 0 -7 3 -2 5 12 5 14
0 19 -2 13 -5z m122 -33 c44 -22 69 -37 55 -34 -28 8 -150 65 -150 70 0 9 19
1 95 -36z m287 -138 c2 -4 37 -30 78 -57 41 -26 84 -58 95 -70 11 -12 29 -25
41 -29 11 -3 38 -25 60 -47 21 -23 30 -37 19 -31 -11 6 -33 24 -49 41 -17 17
-33 31 -38 31 -4 0 8 -17 28 -37 20 -21 42 -52 50 -70 7 -17 21 -38 29 -47 11
-10 12 -16 4 -16 -9 0 -8 -4 1 -17 14 -21 -32 28 -70 72 -15 17 -37 39 -50 50
-20 17 -23 18 -17 3 4 -10 2 -18 -3 -18 -5 0 -12 9 -15 21 -4 11 -9 18 -12 16
-2 -3 1 -15 7 -27 6 -12 9 -24 7 -26 -3 -3 -51 29 -107 70 -57 42 -108 76
-114 75 -6 0 2 -10 18 -22 84 -64 148 -117 141 -117 -5 0 2 -11 15 -25 13 -14
21 -28 17 -31 -3 -4 -18 7 -32 24 -17 20 -32 29 -43 26 -14 -5 -15 -4 -2 5 14
10 7 16 -13 12 -5 -1 -6 3 -2 8 3 6 -7 18 -22 28 -15 10 -50 38 -76 63 -27 25
-57 49 -68 54 -10 5 -19 13 -19 18 0 4 -7 8 -16 8 -8 0 -12 5 -8 11 4 7 0 9
-14 5 -12 -4 -33 -1 -48 7 l-27 14 27 5 c14 3 26 1 26 -3 0 -5 5 -9 11 -9 17
0 162 -70 183 -89 18 -15 18 -15 7 7 -6 12 -17 22 -23 22 -6 0 -9 3 -5 6 3 4
18 -3 33 -15 15 -11 34 -21 43 -21 17 1 16 2 -46 46 -54 39 -78 63 -63 63 8 0
26 -6 40 -14 26 -15 53 -21 35 -7 -19 14 -37 42 -27 42 6 0 12 -4 14 -8z
m-637 -18 c13 -5 14 -8 3 -15 -8 -6 -1 -9 22 -9 39 -1 125 -22 136 -33 4 -4
-3 -7 -17 -7 -18 0 -12 -7 34 -36 31 -19 57 -37 57 -39 0 -2 -31 13 -69 33
-45 24 -65 40 -58 45 7 5 0 6 -16 2 -21 -4 -27 -3 -21 6 5 9 2 10 -10 6 -10
-4 -15 -3 -11 3 4 6 -6 10 -22 11 -15 0 -48 9 -73 19 l-45 19 37 0 c20 1 44
-2 53 -5z m148 -21 c-7 -2 -21 -2 -30 0 -10 3 -4 5 12 5 17 0 24 -2 18 -5z
m-1357 -45 c4 -6 3 -8 -3 -5 -6 4 -14 0 -17 -9 -3 -8 -10 -13 -14 -10 -5 3
-19 -1 -33 -8 -13 -6 -33 -15 -43 -19 -20 -8 -20 -8 0 14 19 22 68 48 91 49 6
0 15 -5 19 -12z m1265 -14 c50 -16 73 -34 45 -34 -8 0 -17 4 -20 9 -3 4 -18 6
-33 4 -22 -4 -25 -2 -13 6 9 6 10 11 3 11 -6 0 -19 3 -29 7 -13 5 -15 3 -9 -7
5 -9 4 -11 -4 -6 -10 7 -7 26 5 26 3 0 28 -7 55 -16z m-11 -40 c25 -9 59 -16
77 -15 38 0 186 -74 253 -128 71 -57 147 -132 125 -124 -40 14 -65 30 -57 37
4 4 2 7 -3 5 -16 -4 -45 12 -39 22 3 5 0 9 -7 9 -7 0 -20 6 -28 14 -9 7 -29
16 -46 20 l-30 7 30 -21 c17 -11 33 -20 38 -20 7 0 16 -7 87 -73 42 -39 54
-55 97 -124 9 -16 -21 8 -68 53 -86 82 -178 154 -198 154 -6 0 -11 4 -11 9 0
5 -15 14 -32 21 -18 6 -49 20 -68 30 -45 23 -108 47 -190 70 -36 10 -58 20
-50 20 8 1 -5 8 -30 16 l-45 14 44 -4 c27 -3 39 -1 31 4 -10 6 -9 9 6 13 10 2
7 3 -8 1 -15 -2 -30 2 -34 8 -10 16 98 4 156 -18z m327 -78 c-1 -5 10 -12 25
-16 16 -5 45 -22 67 -39 21 -17 41 -28 45 -26 3 3 4 2 1 -1 -2 -4 19 -32 48
-64 45 -48 107 -145 107 -166 0 -4 -10 7 -22 24 -75 103 -177 200 -303 286
-19 14 -19 14 7 13 14 -1 26 -6 25 -11z m-294 -41 l32 -14 -35 6 c-19 4 -52
12 -75 20 l-40 13 43 -5 c24 -3 58 -12 75 -20z m757 -10 c0 -8 5 -15 12 -15 6
0 8 -3 5 -6 -8 -8 -37 14 -37 27 0 5 5 9 10 9 6 0 10 -7 10 -15z m159 -45 c5
-16 8 -30 6 -30 -2 0 -10 14 -19 30 -8 17 -11 30 -6 30 4 0 13 -13 19 -30z
m-163 -43 c60 -81 58 -94 -4 -33 -34 33 -59 63 -56 68 11 17 30 6 60 -35z
m-957 24 c9 -6 2 -10 -23 -13 -39 -4 -60 7 -29 15 29 8 37 7 52 -2z m93 -14
c7 -7 33 -19 57 -27 24 -8 49 -19 55 -26 7 -6 25 -19 41 -27 32 -17 102 -77
91 -77 -12 0 -124 59 -130 69 -4 5 -20 12 -36 16 -17 4 -35 15 -40 25 -5 10
-24 22 -42 25 -18 4 -42 14 -53 21 -18 13 -18 14 12 14 17 0 38 -6 45 -13z
m708 -23 c0 -3 -7 -1 -15 6 -8 7 -15 17 -15 22 0 5 7 3 15 -6 8 -8 15 -18 15
-22z m-446 -173 c4 -5 -3 -7 -14 -4 -23 6 -26 13 -6 13 8 0 17 -4 20 -9z
m-260 -50 c4 -5 -3 -7 -14 -4 -23 6 -26 13 -6 13 8 0 17 -4 20 -9z m-56 -85
c15 -8 36 -18 47 -21 12 -4 15 -9 8 -12 -7 -2 -32 4 -56 15 -25 11 -59 23 -76
27 -17 4 -31 11 -31 16 0 5 -9 9 -19 9 -27 0 -52 11 -46 20 5 8 128 -30 173
-54z m-15 37 c-7 -2 -21 -2 -30 0 -10 3 -4 5 12 5 17 0 24 -2 18 -5z m-67
-128 c14 -13 13 -15 -4 -15 -11 0 -22 7 -26 15 -3 8 -1 15 5 15 6 0 17 -7 25
-15z m108 -31 c17 -6 22 -24 8 -24 -5 0 -17 7 -28 15 -19 15 -8 20 20 9z
m-1847 -30 c-3 -3 -12 -4 -19 -1 -8 3 -5 6 6 6 11 1 17 -2 13 -5z m1566 -1
c-7 -2 -21 -2 -30 0 -10 3 -4 5 12 5 17 0 24 -2 18 -5z m-285 -93 c-31 -16
-59 -34 -63 -40 -3 -5 -10 -10 -16 -10 -17 0 27 36 71 57 67 33 74 26 8 -7z
m272 -20 c0 -5 -10 -10 -22 -10 -19 0 -20 2 -8 10 19 13 30 13 30 0z m-150
-30 c-20 -13 -33 -13 -25 0 3 6 14 10 23 10 15 0 15 -2 2 -10z m1942 -5 c0 -5
-5 -11 -11 -13 -6 -2 -11 4 -11 13 0 9 5 15 11 13 6 -2 11 -8 11 -13z m-2162
1 c0 -3 -4 -8 -10 -11 -5 -3 -10 -1 -10 4 0 6 5 11 10 11 6 0 10 -2 10 -4z
m180 -4 c0 -4 -16 -12 -35 -18 -39 -12 -47 -3 -12 14 26 13 47 15 47 4z m2057
-48 c-3 -3 -12 -4 -19 -1 -8 3 -5 6 6 6 11 1 17 -2 13 -5z m-2147 -22 c0 -8
-57 -32 -74 -32 -5 0 -3 6 4 14 10 13 21 17 63 25 4 0 7 -3 7 -7z m2103 -21
c4 -1 7 -6 7 -12 0 -6 -9 -8 -22 -4 -34 11 -47 26 -18 21 14 -2 28 -5 33 -5z
m-163 -31 c0 -5 -7 -10 -16 -10 -8 0 -12 5 -9 10 3 6 10 10 16 10 5 0 9 -4 9
-10z m-2494 -926 c-22 -16 -36 -18 -36 -6 0 11 43 32 50 25 3 -3 -4 -11 -14
-19z m-783 -396 c-6 -29 -4 -31 9 -21 12 11 17 8 28 -15 7 -15 17 -35 22 -45
5 -11 7 -21 5 -24 -7 -6 -57 42 -57 55 0 6 -9 14 -20 17 -11 3 -20 13 -20 21
0 8 -4 12 -10 9 -5 -3 -10 1 -10 9 0 13 16 22 47 25 9 1 11 -9 6 -31z m-113
-688 c-6 -12 -9 -34 -5 -49 3 -16 8 -50 10 -75 3 -26 9 -55 15 -66 13 -24 13
-63 0 -55 -18 11 -41 79 -42 125 0 25 -3 49 -6 55 -11 19 -9 50 5 85 12 30 16
33 24 18 7 -12 6 -25 -1 -38z"/>
<path d="M6130 9846 c0 -3 9 -10 20 -16 11 -6 20 -8 20 -6 0 3 -9 10 -20 16
-11 6 -20 8 -20 6z"/>
<path d="M6200 9830 c-9 -6 -10 -10 -3 -10 6 0 15 5 18 10 8 12 4 12 -15 0z"/>
<path d="M5418 9973 c7 -3 16 -2 19 1 4 3 -2 6 -13 5 -11 0 -14 -3 -6 -6z"/>
<path d="M5408 9843 c7 -3 16 -2 19 1 4 3 -2 6 -13 5 -11 0 -14 -3 -6 -6z"/>
<path d="M5890 9725 c13 -14 26 -25 28 -25 3 0 -5 11 -18 25 -13 14 -26 25
-28 25 -3 0 5 -11 18 -25z"/>
<path d="M6406 9871 c38 -38 70 -68 72 -66 9 9 -113 135 -129 135 -6 0 20 -31
57 -69z"/>
<path d="M4240 7753 c-50 -18 -140 -65 -140 -73 0 -5 -7 -10 -15 -10 -9 0 -18
-6 -21 -13 -2 -7 -29 -32 -59 -56 -30 -24 -55 -49 -55 -55 0 -6 -8 -27 -19
-46 -10 -19 -23 -70 -29 -112 -7 -43 -13 -81 -14 -85 -1 -4 2 -35 7 -68 9 -71
34 -109 85 -129 20 -8 73 -46 118 -85 81 -70 125 -91 189 -91 17 0 35 5 38 10
3 6 -1 10 -9 10 -9 0 -16 3 -16 8 0 4 -14 16 -30 27 -38 26 -50 77 -25 105 19
21 50 26 60 10 3 -5 10 -10 16 -10 5 0 9 5 9 10 0 6 -6 10 -14 10 -23 0 -45
43 -38 76 18 78 65 98 82 35 12 -46 49 -88 84 -97 80 -20 176 32 196 107 6 21
15 39 19 39 5 0 31 -20 59 -45 27 -25 57 -45 65 -45 22 0 32 -21 16 -31 -8 -5
-23 -6 -34 -3 -13 4 -17 3 -10 -4 6 -5 36 -12 68 -16 65 -7 74 5 36 52 -11 15
-16 28 -10 30 22 7 65 -24 75 -55 16 -46 21 -48 61 -23 39 24 59 56 69 110 8
48 -8 131 -28 142 -9 5 -16 20 -16 33 0 14 -6 25 -13 25 -21 0 -39 47 -27 70
14 26 12 40 -4 34 -8 -3 -30 10 -50 31 -20 20 -41 33 -47 29 -6 -3 -23 5 -37
19 -34 31 -120 69 -127 56 -4 -5 -14 -9 -23 -9 -13 0 -14 2 -4 9 12 7 -122 24
-185 23 -13 0 -23 4 -23 9 0 5 -15 9 -32 9 -48 0 -129 26 -103 33 11 2 -2 5
-30 5 -27 0 -57 -2 -65 -5z m331 -372 c13 -10 40 -21 60 -25 21 -4 43 -14 50
-23 12 -14 10 -15 -21 -8 -19 4 -47 14 -62 21 -15 8 -64 17 -109 21 -51 5 -84
13 -87 21 -7 21 140 16 169 -7z m-183 -13 c-3 -7 -23 -16 -46 -21 -23 -4 -54
-14 -69 -22 -29 -15 -39 -13 -28 4 21 35 153 70 143 39z m337 -68 c3 -6 -1 -7
-9 -4 -18 7 -21 14 -7 14 6 0 13 -4 16 -10z m-172 -24 c7 -19 -1 -26 -30 -26
-22 0 -31 19 -16 33 11 12 41 7 46 -7z"/>
<path d="M5788 7558 c-16 -5 -28 -14 -28 -19 0 -5 -5 -9 -11 -9 -6 0 -24 -9
-40 -21 -33 -23 -36 -19 -13 17 9 13 14 27 12 30 -3 3 -27 -25 -52 -61 -26
-36 -49 -65 -51 -65 -2 0 -1 9 2 20 3 11 2 28 -1 37 -6 15 -8 15 -16 3 -6 -8
-10 -25 -10 -36 0 -26 -26 -52 -32 -33 -6 19 -41 -80 -35 -102 3 -10 2 -19 -3
-19 -18 0 -33 -61 -24 -103 9 -40 11 -42 44 -41 19 0 56 4 83 8 58 9 60 -2 7
-39 -50 -35 -52 -55 -5 -55 24 0 35 5 35 15 0 8 7 15 15 15 9 0 15 -9 15 -22
l0 -23 13 24 c16 32 75 78 110 86 26 7 27 5 27 -29 0 -20 9 -54 20 -76 22 -44
61 -61 140 -64 59 -1 96 28 113 91 l11 42 29 -21 c16 -11 33 -32 39 -47 6 -14
15 -36 21 -49 8 -18 8 -25 -2 -31 -16 -10 -6 -17 41 -25 20 -4 39 -2 42 3 4 6
20 6 42 -1 44 -12 49 -7 35 33 -16 46 -14 50 15 43 20 -5 25 -4 20 5 -4 7 -2
19 5 27 9 11 9 18 2 22 -6 4 -13 17 -17 30 -4 12 -13 22 -21 22 -7 0 -27 13
-43 29 -16 17 -58 45 -93 64 -61 33 -83 40 -226 67 -57 11 -85 31 -63 45 12 7
94 15 170 16 36 1 82 5 103 10 32 8 42 7 66 -11 16 -11 42 -20 57 -20 15 0 24
-3 21 -7 -4 -3 10 -18 31 -31 20 -14 44 -34 53 -44 9 -10 21 -18 28 -18 6 0
11 -4 11 -10 0 -5 15 -10 33 -10 32 0 33 2 32 33 -3 43 -19 82 -56 129 -31 38
-108 98 -128 98 -5 0 -27 11 -47 25 -38 26 -60 32 -49 15 8 -14 -13 -12 -59 4
-30 10 -44 11 -58 3 -13 -8 -26 -8 -52 1 -19 7 -46 10 -59 7 -14 -4 -34 -2
-45 4 -11 6 -35 11 -54 11 -18 0 -48 0 -67 0 -19 1 -39 4 -45 9 -6 5 -23 4
-38 -1z m401 -57 c8 -5 9 -11 3 -15 -5 -3 -15 1 -22 9 -14 16 -3 20 19 6z m96
-21 c3 -5 2 -10 -4 -10 -5 0 -13 5 -16 10 -3 6 -2 10 4 10 5 0 13 -4 16 -10z
m-13 -46 c6 -13 19 -26 30 -30 24 -7 13 -24 -17 -24 -17 0 -23 4 -19 14 4 9
-6 18 -29 27 -39 14 -40 37 -1 37 17 0 29 -8 36 -24z m-182 -182 c103 -28 169
-80 236 -187 l19 -30 -25 18 c-193 137 -259 168 -370 173 -36 1 -67 4 -70 5
-8 3 -13 2 -68 -15 -29 -8 -50 -11 -47 -6 4 6 14 10 23 10 9 0 40 11 67 25 61
30 139 32 235 7z m-126 -98 c9 -3 16 -10 16 -16 0 -14 -43 -5 -48 10 -4 13 7
15 32 6z"/>
<path d="M7003 7055 c-59 -25 -59 -45 2 -107 30 -31 60 -69 66 -84 l11 -29 9
23 c15 40 13 136 -4 169 -13 24 -38 46 -50 43 -1 -1 -16 -7 -34 -15z"/>
<path d="M4959 6456 c-3 -3 -36 -10 -74 -16 -39 -6 -74 -15 -79 -21 -19 -18
-74 -10 -91 14 -16 22 -16 22 -30 3 -31 -41 -7 -119 45 -150 38 -22 127 -47
163 -46 15 0 27 -4 27 -10 0 -5 7 -10 15 -10 8 0 15 4 15 8 0 5 12 14 27 21
21 10 41 10 95 0 85 -15 118 -4 118 40 0 34 -10 43 -75 65 -36 13 -60 29 -85
61 -31 39 -58 54 -71 41z"/>
<path d="M5301 6378 c-25 -13 -51 -33 -58 -44 l-14 -22 136 0 c74 1 135 4 135
9 0 37 -40 63 -110 74 -36 5 -54 1 -89 -17z"/>
<path d="M5508 6267 c-49 -14 -49 -27 0 -27 26 0 45 7 57 20 17 19 17 20 -1
19 -10 -1 -36 -6 -56 -12z"/>
<path d="M3916 6157 c3 -10 9 -15 12 -12 3 3 0 11 -7 18 -10 9 -11 8 -5 -6z"/>
<path d="M3905 6110 c-5 -14 -8 -37 -6 -51 1 -15 -5 -33 -13 -42 -9 -9 -13
-23 -10 -32 4 -8 -1 -24 -10 -34 -22 -24 -23 -84 -2 -151 19 -60 30 -104 46
-195 6 -33 18 -93 27 -134 10 -48 13 -93 9 -129 -4 -30 -11 -179 -16 -331 -6
-152 -12 -319 -14 -371 -6 -139 -40 -267 -69 -257 -14 4 -14 26 -2 256 l8 164
-179 -7 c-399 -15 -600 -27 -707 -41 -142 -19 -265 -67 -254 -99 3 -6 -2 -26
-9 -45 -19 -45 -18 -135 2 -172 8 -17 13 -37 10 -44 -2 -7 4 -21 15 -31 10 -9
19 -23 19 -31 0 -7 3 -13 8 -13 4 0 32 -24 63 -53 31 -28 78 -63 105 -77 27
-14 51 -27 54 -30 3 -3 25 -19 50 -35 25 -17 50 -34 55 -38 6 -5 71 -49 145
-97 74 -49 140 -93 145 -98 6 -5 44 -31 85 -58 41 -27 80 -52 85 -56 6 -5 39
-29 75 -54 68 -48 39 -13 -35 41 -22 17 -46 36 -54 43 -8 8 -33 25 -55 39 -22
15 -46 31 -53 37 -35 31 -45 38 -50 33 -3 -3 -17 6 -32 19 -14 14 -64 51 -111
81 -46 31 -90 61 -96 67 -14 13 -38 30 -83 57 -18 11 -31 22 -28 25 5 5 87
-35 97 -47 3 -4 23 -14 45 -23 21 -9 42 -20 45 -24 7 -9 109 -77 140 -92 14
-7 41 -26 62 -42 23 -18 43 -26 55 -22 15 5 15 4 3 -5 -8 -6 -10 -11 -4 -11 6
0 22 -10 35 -21 30 -27 96 -69 106 -69 5 1 -3 10 -16 21 -13 11 -21 23 -17 26
4 4 11 1 16 -6 4 -8 15 -11 25 -8 9 4 14 3 11 -1 -2 -4 -1 -14 4 -22 8 -13 13
-13 30 -2 20 12 21 11 16 -25 -3 -21 -3 -29 0 -18 4 11 10 25 16 32 6 8 1 25
-17 53 -14 22 -23 46 -19 52 4 7 3 8 -4 4 -7 -4 -12 -2 -12 3 0 6 9 11 20 11
11 0 20 5 20 10 0 6 -9 10 -20 10 -19 0 -22 4 -24 33 -1 6 -5 15 -11 19 -6 5
-3 8 6 8 10 0 16 7 15 18 0 11 5 16 14 13 8 -2 28 -6 44 -9 17 -3 31 -12 33
-23 3 -11 9 -19 13 -19 4 0 49 -41 101 -91 107 -104 221 -199 238 -199 6 0 11
5 11 10 0 6 -4 10 -9 10 -17 0 -18 137 -1 182 27 71 40 96 55 102 8 3 15 12
15 19 0 16 30 30 105 48 46 11 57 9 127 -15 42 -14 83 -26 92 -26 8 0 19 -6
23 -13 28 -45 145 -66 174 -31 11 13 29 15 98 11 48 -2 95 -7 106 -11 11 -4
28 -1 38 7 18 13 18 14 -3 53 -12 21 -30 53 -40 69 -24 39 -27 156 -5 175 8 7
15 18 15 25 0 16 105 83 139 88 9 1 21 5 26 9 10 6 93 34 175 58 53 16 172 73
215 104 16 11 36 20 42 18 7 -2 13 3 13 10 0 7 22 25 48 40 26 16 56 34 67 40
24 16 108 80 115 89 3 3 37 33 75 66 39 33 77 72 85 88 8 15 42 55 75 89 68
69 110 120 244 296 20 27 51 95 51 113 0 5 -8 3 -18 -6 -10 -10 -24 -17 -30
-17 -6 0 -16 -9 -22 -21 -19 -35 -42 -61 -122 -139 -97 -95 -117 -112 -127
-105 -5 3 -11 -2 -15 -10 -3 -8 -15 -15 -26 -15 -11 0 -20 -4 -20 -8 0 -9 -77
-62 -90 -62 -4 0 -29 -22 -56 -50 -27 -27 -54 -50 -61 -50 -7 0 -13 -4 -13 -8
0 -5 -22 -18 -49 -30 -27 -12 -52 -26 -56 -32 -3 -5 -15 -10 -26 -10 -10 0
-19 -4 -19 -10 0 -5 -9 -10 -19 -10 -11 0 -23 -4 -26 -10 -3 -5 -15 -10 -26
-10 -11 0 -22 -6 -24 -13 -4 -8 -30 -13 -78 -14 -39 -1 -91 -6 -114 -11 -57
-12 -122 -6 -175 17 -32 13 -47 15 -60 8 -12 -8 -23 -8 -40 0 -13 6 -43 16
-68 23 -25 6 -58 18 -74 26 -21 11 -32 12 -42 4 -9 -9 -15 -6 -23 8 -6 11 -33
34 -60 51 -27 17 -51 41 -54 53 -5 16 -11 20 -34 15 -24 -4 -37 4 -104 73 -43
43 -81 89 -85 102 -4 13 -15 29 -25 36 -11 7 -19 24 -19 36 0 13 -7 29 -15 36
-8 7 -15 18 -15 26 0 7 -6 17 -14 21 -13 7 -21 29 -30 83 -1 8 -8 28 -14 43
-7 16 -9 33 -6 39 3 5 -2 15 -12 22 -11 8 -15 19 -10 31 4 11 -5 36 -25 68
-17 28 -43 87 -58 131 -14 45 -36 97 -49 117 -12 20 -22 45 -22 55 0 11 -7 28
-15 38 -8 11 -15 30 -15 43 0 14 -6 23 -15 23 -8 0 -15 8 -15 18 0 23 -22 43
-72 65 -20 10 -38 23 -41 30 -2 6 -8 1 -12 -13z m-262 -1695 c-51 -59 -88 -71
-114 -38 -13 15 -12 15 6 6 27 -14 53 -3 100 46 58 60 64 50 8 -14z m-168 -5
c20 -8 20 -9 -1 -9 -12 -1 -33 -12 -48 -26 -15 -14 -40 -32 -57 -40 -16 -9
-29 -20 -29 -26 0 -6 -4 -7 -10 -4 -14 9 29 91 54 104 26 12 64 13 91 1z
m-462 -227 c-7 -2 -21 -2 -30 0 -10 3 -4 5 12 5 17 0 24 -2 18 -5z"/>
<path d="M4359 6046 c-15 -13 -32 -33 -38 -45 -7 -11 -18 -21 -25 -21 -23 0
-33 -71 -20 -138 10 -50 77 -69 116 -32 45 42 120 14 223 -83 27 -26 49 -47
50 -47 0 0 0 17 0 38 l0 37 70 -3 c39 -2 95 -10 126 -17 71 -19 68 -19 62 5
-7 27 24 27 104 -1 41 -14 63 -26 66 -40 5 -17 14 -19 79 -18 l73 2 -57 11
c-31 6 -60 14 -64 18 -13 13 46 28 113 28 60 0 65 -2 60 -20 -6 -24 18 -28 27
-5 7 19 69 20 85 1 8 -10 45 -16 114 -21 88 -6 110 -4 161 14 33 12 72 21 88
21 17 0 27 4 23 10 -3 6 0 10 7 10 7 1 0 7 -17 14 -16 7 -58 13 -92 14 -34 0
-98 8 -143 17 -44 9 -88 15 -97 14 -10 -1 -26 1 -36 6 -10 4 -23 2 -32 -5 -13
-11 -20 -11 -40 0 -14 8 -37 10 -56 6 -19 -3 -38 -1 -46 5 -7 7 -43 13 -78 14
-44 2 -75 9 -99 23 -36 21 -114 47 -129 44 -4 -1 -27 4 -49 12 -29 9 -76 12
-159 9 l-117 -4 -26 33 c-25 32 -25 33 -6 42 23 10 28 31 5 22 -18 -6 -20 5
-3 22 20 20 1 26 -100 28 -89 2 -99 1 -123 -20z m521 -286 c0 -13 -20 -13 -40
0 -12 8 -9 10 13 10 15 0 27 -4 27 -10z"/>
<path d="M4645 6010 c-3 -5 -1 -10 4 -10 6 0 11 5 11 10 0 6 -2 10 -4 10 -3 0
-8 -4 -11 -10z"/>
<path d="M5765 5889 c9 -16 24 -38 34 -48 10 -10 20 -25 24 -34 3 -9 13 -17
21 -17 8 0 17 -9 21 -19 8 -25 35 -16 35 10 0 10 5 19 10 19 6 0 10 5 10 10 0
6 -9 10 -20 10 -11 0 -20 6 -20 14 0 18 -47 56 -70 56 -10 0 -23 7 -30 15 -22
26 -31 16 -15 -16z"/>
<path d="M4707 5539 c7 -7 15 -10 18 -7 3 3 -2 9 -12 12 -14 6 -15 5 -6 -5z"/>
<path d="M4750 5500 c0 -20 50 -86 77 -101 16 -9 57 -27 93 -39 87 -31 259
-33 320 -4 22 10 38 24 37 29 -2 6 -57 13 -123 17 -132 7 -217 24 -283 56 -24
12 -48 19 -52 16 -5 -3 -9 0 -9 6 0 6 -4 9 -9 6 -5 -3 -14 1 -21 9 -14 17 -30
20 -30 5z"/>
<path d="M6273 4758 c2 -8 -9 -18 -27 -24 -23 -8 -32 -19 -38 -45 -13 -57 -6
-279 12 -372 15 -78 15 -98 3 -165 -7 -42 -11 -83 -8 -90 3 -7 0 -10 -5 -7 -6
3 -10 -2 -10 -12 0 -10 -9 -36 -20 -58 l-21 -40 37 40 c93 103 144 231 144
361 0 87 -17 110 -75 100 -53 -10 -45 19 14 49 58 29 103 16 169 -50 49 -49
59 -55 82 -48 14 4 48 8 77 8 61 0 72 -10 102 -99 36 -103 45 -107 225 -85 86
11 95 10 140 -9 55 -25 57 -24 146 42 82 61 131 116 168 189 37 75 38 86 16
150 -27 79 -101 122 -235 137 -80 9 -114 6 -103 -11 3 -5 -1 -9 -8 -10 -7 0
-67 -5 -133 -10 -233 -18 -315 -22 -315 -12 0 12 -15 14 -102 16 -36 1 -70 5
-74 10 -4 4 -17 7 -28 7 -12 0 -39 11 -61 25 -43 26 -79 33 -72 13z"/>
<path d="M2620 4270 c-31 -58 -20 -329 15 -397 8 -16 10 -30 5 -33 -5 -3 0
-11 10 -18 17 -10 20 -10 20 3 0 8 5 15 10 15 6 0 9 -6 8 -12 -2 -7 4 -13 12
-13 8 0 18 -9 21 -20 6 -17 8 -15 14 13 8 32 25 45 25 17 0 -20 17 -19 29 3 6
9 11 13 11 7 0 -5 11 13 24 40 14 28 25 46 25 42 1 -4 -6 -22 -15 -39 -13 -25
-14 -32 -2 -39 20 -13 27 -11 21 10 -3 10 0 22 6 25 6 4 11 18 11 31 0 16 4
23 14 19 9 -3 13 4 14 23 0 15 4 45 8 66 5 30 3 37 -10 37 -10 0 -16 9 -16 23
-1 24 -52 87 -72 87 -10 0 -10 2 0 9 10 6 6 15 -18 35 -17 14 -37 26 -43 26
-7 0 -6 4 3 10 12 8 12 10 -3 16 -9 3 -17 14 -18 23 0 9 -3 11 -6 4 -3 -10 -9
-10 -25 0 -16 9 -22 9 -25 0 -3 -9 -10 -10 -23 -3 -15 8 -21 6 -30 -10z m180
-414 c0 -9 -30 -14 -35 -6 -4 6 3 10 14 10 12 0 21 -2 21 -4z"/>
<path d="M3705 4000 c-3 -6 1 -7 9 -4 18 7 21 14 7 14 -6 0 -13 -4 -16 -10z"/>
<path d="M2648 3793 c7 -3 16 -2 19 1 4 3 -2 6 -13 5 -11 0 -14 -3 -6 -6z"/>
<path d="M2690 3790 c0 -5 5 -10 10 -10 6 0 10 5 10 10 0 6 -4 10 -10 10 -5 0
-10 -4 -10 -10z"/>
<path d="M7802 3748 c-6 -6 -12 -9 -12 -6 0 7 -32 -6 -175 -72 -82 -37 -93
-43 -202 -99 -46 -24 -83 -46 -83 -50 0 -4 18 -25 40 -46 22 -21 40 -33 40
-25 0 7 3 10 7 7 3 -4 13 -1 22 7 9 7 54 35 101 61 90 51 130 59 215 42 l40
-8 18 63 c10 35 20 72 23 83 7 28 -17 60 -34 43z"/>
<path d="M2640 3693 c0 -4 -35 -9 -77 -10 -77 -2 -139 -23 -186 -62 -11 -9
-33 -14 -58 -12 -22 1 -47 -3 -55 -9 -14 -13 -18 -67 -8 -108 6 -21 10 -22 56
-16 57 8 81 -9 92 -67 10 -54 69 -101 236 -186 30 -15 59 -34 63 -41 5 -7 13
-9 19 -6 6 4 13 3 17 -2 11 -16 108 -64 115 -57 3 3 6 1 6 -6 0 -7 4 -10 9 -6
5 3 16 -1 24 -9 8 -8 17 -12 21 -9 3 4 6 1 6 -6 0 -7 4 -10 9 -6 5 3 15 -1 23
-8 7 -8 21 -13 31 -11 9 1 17 -2 17 -7 0 -6 5 -7 10 -4 6 3 10 1 10 -5 0 -6 5
-8 11 -5 5 4 18 0 28 -9 9 -8 46 -25 81 -36 35 -11 69 -25 77 -31 7 -6 13 -8
13 -4 0 4 6 2 14 -4 11 -9 15 -9 19 1 3 8 6 6 6 -5 1 -10 5 -16 10 -13 11 7
101 -23 101 -34 0 -4 8 -7 18 -7 9 1 37 -5 62 -12 25 -7 52 -15 60 -16 19 -4
145 -38 225 -60 33 -9 78 -19 100 -21 80 -10 274 -62 298 -80 30 -22 90 -108
93 -132 1 -9 5 -35 8 -57 19 -130 24 -267 26 -675 3 -523 0 -961 -5 -970 -2
-3 -6 -84 -10 -180 -3 -96 -8 -218 -10 -270 -3 -52 -7 -168 -10 -257 l-6 -163
25 0 c21 0 26 5 27 28 3 112 9 261 14 337 3 50 6 122 7 160 1 39 6 76 11 82 5
7 6 13 1 13 -11 0 -10 51 0 68 4 7 2 12 -4 12 -6 0 -8 5 -4 11 7 12 12 101 16
314 2 78 7 143 13 147 7 5 7 8 0 8 -15 0 -10 191 5 200 9 6 9 9 -1 12 -13 4
-14 78 -6 956 1 162 -1 296 -4 298 -4 2 -3 20 1 39 4 20 6 45 3 56 -4 12 0 25
8 30 8 5 9 9 4 9 -7 0 -10 25 -10 63 1 34 -2 70 -7 80 -6 11 -5 17 2 17 6 0 9
4 6 8 -3 5 -6 44 -7 87 -1 44 -5 94 -10 113 -9 40 -4 58 18 66 26 10 43 -14
43 -60 0 -52 11 -55 40 -14 l21 30 -24 54 c-21 45 -30 55 -54 58 -43 5 -70
-11 -86 -51 -12 -29 -15 -31 -16 -13 -1 12 -5 22 -11 22 -16 0 -12 -44 9 -89
20 -46 22 -151 2 -174 -6 -8 -8 -16 -5 -20 3 -3 -4 -8 -16 -12 -24 -8 -102 3
-96 14 3 4 -10 6 -29 6 -20 -1 -31 3 -29 10 3 6 -8 12 -23 13 -16 1 -29 7 -31
12 -2 6 -12 10 -22 10 -11 0 -34 6 -52 14 -18 8 -48 21 -65 28 -18 7 -33 16
-33 20 0 5 -9 8 -21 8 -11 0 -45 11 -75 25 -30 14 -61 25 -69 25 -7 0 -16 4
-19 9 -3 5 -29 16 -57 25 -29 10 -58 24 -66 32 -8 8 -19 12 -24 8 -5 -3 -12 1
-15 9 -3 9 -16 14 -30 12 -13 -1 -24 2 -24 6 0 5 -7 9 -16 9 -10 0 -40 15 -68
34 -28 19 -67 36 -86 38 -23 2 -41 11 -51 26 -12 17 -18 20 -22 10 -3 -8 -8
-4 -15 12 -6 14 -11 19 -11 13 -1 -18 -21 -16 -21 1 0 9 -7 12 -20 9 -11 -3
-20 0 -20 6 0 6 -6 11 -13 11 -7 0 -22 8 -33 18 -10 9 -49 32 -87 50 -41 21
-65 38 -61 44 5 7 1 9 -9 5 -16 -6 -77 36 -102 70 -8 10 -17 13 -26 8 -8 -5
-11 -5 -7 0 11 12 -11 35 -28 28 -8 -3 -14 1 -14 11 0 21 -16 20 -29 -1 -9
-15 -10 -13 -11 11 0 28 -1 29 -15 10 -14 -19 -14 -18 -15 4 0 21 -14 30 -23
15 -2 -5 -2 -3 -1 4 2 7 -1 15 -6 18 -6 4 -10 3 -10 -2z"/>
<path d="M3690 3681 c0 -6 24 -27 53 -46 28 -19 63 -43 77 -52 25 -17 25 -17
5 3 -18 16 -39 33 -122 97 -9 6 -13 6 -13 -2z"/>
<path d="M6951 3536 c-1 -39 6 -62 34 -111 33 -60 34 -63 15 -68 -11 -3 -22
-5 -24 -4 -2 1 -12 -5 -22 -15 -11 -9 -35 -21 -54 -26 -19 -6 -68 -24 -109
-41 -41 -17 -81 -31 -90 -31 -9 0 -24 -7 -34 -15 -11 -7 -27 -12 -38 -10 -10
2 -19 1 -19 -3 0 -8 -60 -33 -125 -52 -22 -7 -49 -17 -60 -23 -11 -6 -24 -11
-30 -12 -5 0 -21 -6 -35 -12 -14 -7 -56 -21 -95 -33 -38 -12 -84 -28 -102 -36
-17 -7 -37 -14 -45 -14 -8 0 -18 -4 -23 -8 -12 -10 -92 -40 -120 -45 -11 -2
-36 -10 -55 -19 -19 -9 -64 -23 -100 -32 -36 -10 -72 -20 -80 -23 -8 -4 -17
-7 -20 -8 -3 -1 -24 -5 -48 -10 -23 -4 -45 -12 -48 -16 -3 -5 -18 -9 -34 -9
-15 0 -31 -6 -33 -12 -3 -7 -6 7 -6 31 -1 64 -8 47 -15 -39 -4 -41 -8 -87 -9
-102 -2 -18 1 -25 7 -20 6 4 25 9 41 11 83 8 363 87 560 157 230 82 327 114
346 114 17 0 56 17 69 30 6 6 25 11 63 18 15 2 27 8 27 13 0 5 9 9 20 9 11 0
48 14 82 30 34 17 65 30 69 30 4 0 51 20 104 45 53 25 120 55 148 66 l52 20
79 -83 c92 -97 164 -185 232 -284 27 -40 97 -139 155 -220 143 -201 199 -283
199 -295 0 -30 -48 12 -140 123 -39 49 -76 86 -80 83 -5 -3 -12 0 -16 6 -4 8
-3 9 4 5 35 -22 -24 59 -107 148 -71 75 -115 99 -179 98 -67 0 -89 -16 -25
-18 25 -1 48 -6 52 -10 3 -5 24 -22 46 -39 53 -39 177 -167 227 -233 21 -29
43 -50 49 -47 5 4 8 3 7 -2 -3 -10 111 -126 164 -166 43 -33 58 -34 58 -3 0
33 -10 57 -21 50 -8 -5 -13 10 -10 29 1 5 -2 6 -6 4 -5 -3 -19 17 -33 45 -14
28 -37 63 -52 79 -16 16 -28 33 -28 38 0 14 -122 191 -132 191 -4 0 -8 5 -8
11 0 9 -98 147 -120 169 -3 3 -17 23 -32 45 -15 22 -38 51 -51 65 -12 14 -41
48 -64 77 -22 29 -43 49 -47 46 -3 -4 -6 -1 -6 5 0 6 -30 40 -66 74 -168 158
-193 193 -205 283 l-6 50 -2 -49z"/>
<path d="M6980 3490 c0 -5 5 -10 11 -10 5 0 7 5 4 10 -3 6 -8 10 -11 10 -2 0
-4 -4 -4 -10z"/>
<path d="M4338 3303 c7 -3 16 -2 19 1 4 3 -2 6 -13 5 -11 0 -14 -3 -6 -6z"/>
<path d="M5474 3198 l-19 -23 23 19 c12 11 22 21 22 23 0 8 -8 2 -26 -19z"/>
<path d="M5502 3187 c-12 -13 -22 -33 -22 -46 0 -12 -4 -19 -10 -16 -5 3 -10
15 -10 26 0 10 -4 19 -9 19 -17 0 -20 -30 -7 -92 15 -76 6 -131 -39 -218 -16
-31 -77 -63 -87 -46 -6 8 -8 7 -8 -2 0 -7 -4 -10 -10 -7 -5 3 -10 2 -10 -4 0
-9 -32 -17 -116 -27 -62 -8 -97 -13 -131 -20 -23 -4 -37 -1 -48 10 -16 16 -22
15 -95 -17 -14 -6 -29 -11 -35 -11 -5 -1 -11 -9 -13 -18 -2 -12 5 -19 24 -24
39 -10 237 -11 308 -1 33 4 86 5 118 1 l59 -7 -1 -36 c-1 -20 -1 -38 0 -41 2
-3 4 -21 6 -40 11 -107 13 -131 17 -196 2 -39 7 -76 11 -82 4 -7 2 -12 -5 -12
-8 0 -8 -4 1 -15 9 -11 9 -15 1 -15 -7 0 -10 -4 -7 -8 8 -14 16 -170 31 -637
5 -163 5 -928 0 -1065 -2 -47 -6 -128 -9 -180 -4 -52 -9 -155 -11 -228 l-5
-132 40 0 c45 0 42 -8 43 110 1 41 6 78 12 82 6 5 5 8 -3 8 -8 0 -10 5 -6 12
12 19 12 48 0 48 -7 0 -7 3 -1 8 12 8 16 52 5 52 -11 0 -7 33 5 43 6 6 6 10
-3 14 -6 2 -9 10 -5 16 4 7 8 30 8 52 1 22 5 47 10 54 5 10 4 12 -3 7 -7 -4
-12 -2 -12 3 0 6 9 11 19 11 18 0 19 -11 16 -260 -2 -203 0 -260 10 -260 8 0
15 23 19 63 8 83 5 1223 -4 1267 -6 27 -8 17 -9 -42 -1 -55 -5 -78 -13 -78
-10 0 -10 -2 0 -9 16 -10 13 -141 -3 -141 -5 0 -4 -4 4 -9 9 -6 10 -11 2 -15
-6 -4 -7 -15 -1 -30 9 -26 9 -44 -3 -63 -4 -6 -1 -13 5 -16 10 -3 9 -8 -2 -22
-9 -11 -10 -16 -2 -11 6 4 12 2 12 -3 0 -6 -6 -11 -12 -11 -9 0 -8 -4 2 -10
12 -8 13 -11 1 -19 -8 -5 -9 -11 -3 -15 9 -6 7 -59 -3 -77 -4 -5 -1 -9 6 -9 8
0 8 -4 -1 -15 -7 -8 -8 -15 -3 -15 11 0 11 -29 -1 -48 -4 -7 -2 -12 6 -13 7 0
4 -4 -7 -9 -11 -5 -15 -9 -9 -9 6 -1 10 -24 10 -56 0 -43 -4 -55 -16 -55 -14
0 -16 23 -15 195 0 128 -3 195 -10 195 -7 0 -7 3 0 8 6 4 10 50 10 102 0 54 4
98 10 102 6 5 4 8 -5 8 -13 0 -13 1 0 10 11 7 11 10 2 10 -7 0 -10 5 -7 10 3
6 0 10 -7 10 -9 0 -9 3 2 10 13 9 13 11 0 20 -9 6 -10 10 -3 10 14 0 12 52 -2
62 -6 5 -5 8 4 8 11 0 11 3 1 15 -10 12 -10 15 1 15 9 0 10 3 4 8 -10 7 -13
127 -18 797 -1 219 -6 353 -12 357 -6 5 -6 8 2 8 8 0 9 9 3 29 -5 19 -4 33 3
40 8 8 8 11 -1 11 -10 0 -10 5 -2 20 8 15 8 20 -2 20 -9 0 -9 3 2 10 9 6 10
10 3 10 -8 0 -9 9 -4 28 4 15 7 59 6 99 -1 40 2 70 6 67 4 -2 6 7 3 21 -4 21
6 119 21 200 2 11 4 32 4 46 1 15 9 37 20 50 l18 23 22 -21 c20 -18 21 -25 12
-64 -12 -52 -14 -78 -3 -64 4 6 18 15 32 22 26 11 69 73 51 73 -6 0 -10 3 -10
8 4 23 -4 42 -26 66 -32 34 -83 36 -113 3z"/>
<path d="M4935 2908 c-11 -10 -48 -46 -82 -78 -53 -49 -76 -80 -60 -80 5 0
148 141 166 163 18 23 1 20 -24 -5z"/>
<path d="M4399 2837 c-2 -32 2 -81 7 -86 3 -3 258 31 338 45 26 5 30 10 22 31
-6 14 -9 15 -16 3 -6 -10 -12 -11 -22 -3 -12 11 -52 18 -73 13 -5 -1 -29 -1
-52 0 -27 1 -43 -3 -43 -10 0 -6 -5 -8 -12 -4 -6 4 -31 9 -55 11 -24 2 -54 8
-68 13 -22 8 -25 7 -26 -13z"/>
<path d="M8782 2773 c-12 -37 -36 -121 -53 -186 -18 -68 -45 -140 -64 -170
-29 -49 -30 -53 -11 -52 11 1 23 10 27 21 4 10 19 48 33 84 14 36 26 73 26 83
0 9 4 17 10 17 5 0 15 18 21 40 7 21 15 37 19 35 7 -4 21 185 15 193 -1 1 -12
-28 -23 -65z"/>
<path d="M4790 2815 c-8 -9 -8 -15 -2 -15 12 0 26 19 19 26 -2 2 -10 -2 -17
-11z"/>
<path d="M7076 2725 c-31 -47 -16 -131 36 -198 34 -43 31 -56 -9 -38 -21 10
-25 10 -16 -1 5 -7 35 -44 65 -83 30 -38 78 -104 106 -146 53 -79 148 -189
163 -189 21 0 -8 62 -80 170 -42 63 -76 122 -76 130 -1 8 -6 14 -13 13 -6 -2
-9 3 -6 11 3 7 -2 16 -10 19 -9 4 -16 15 -16 26 0 11 -7 26 -15 35 -8 8 -15
20 -15 27 0 6 -8 19 -18 28 -9 9 -25 32 -34 51 -10 19 -22 42 -26 50 -28 49
-31 60 -22 89 10 37 7 39 -14 6z"/>
<path d="M4765 2730 c-3 -6 1 -7 9 -4 18 7 21 14 7 14 -6 0 -13 -4 -16 -10z"/>
<path d="M4405 2722 c-15 -15 0 -22 47 -22 28 0 49 2 47 4 -8 9 -88 24 -94 18z"/>
<path d="M4523 2703 c9 -2 25 -2 35 0 9 3 1 5 -18 5 -19 0 -27 -2 -17 -5z"/>
<path d="M850 2385 c0 -35 25 -175 40 -225 44 -151 149 -404 245 -595 62 -121
136 -274 165 -340 29 -66 73 -162 97 -214 75 -160 113 -260 119 -308 1 -11 5
-30 9 -42 17 -55 -12 -3 -113 202 -122 248 -172 352 -172 361 0 3 -20 47 -45
98 -25 51 -45 98 -45 105 0 7 -5 13 -12 13 -6 0 -9 3 -5 6 11 11 -21 34 -46
34 -16 0 -26 7 -30 20 -3 11 -1 20 3 20 5 0 -4 25 -21 56 -16 31 -29 62 -29
70 0 7 -9 30 -20 50 -13 22 -18 44 -14 56 4 15 3 18 -6 13 -10 -6 -12 -1 -8
18 3 15 2 24 -2 22 -13 -8 -32 53 -28 89 3 26 0 32 -10 28 -12 -4 -12 -1 -3
17 7 12 10 30 8 39 -4 16 -5 16 -6 0 -2 -28 -21 -21 -21 8 0 14 4 23 9 20 5
-4 7 4 4 15 -6 20 -7 20 -19 -7 l-13 -29 6 34 c4 23 3 32 -5 27 -6 -3 -13 -2
-17 3 -7 12 -74 -29 -75 -45 0 -6 -13 -28 -30 -49 -16 -21 -30 -44 -30 -51 0
-7 -6 -19 -13 -26 -15 -16 -67 -122 -67 -138 0 -5 -4 -18 -9 -28 -43 -79 -128
-298 -145 -374 -8 -35 -21 -94 -30 -133 -9 -38 -20 -81 -25 -95 -21 -56 -81
-350 -116 -565 -24 -143 -40 -234 -70 -390 -8 -38 -17 -89 -20 -112 l-7 -43
191 0 190 0 10 38 c6 20 11 59 11 85 0 27 4 46 9 43 4 -3 7 8 5 25 -3 25 -1
30 12 25 14 -5 15 -4 4 9 -7 8 -8 15 -2 15 6 0 7 13 2 36 -5 22 -4 47 2 63 5
14 11 50 14 79 2 29 9 62 14 73 6 11 8 29 5 39 -4 11 -2 20 3 20 11 0 10 25
-1 36 -4 4 -2 13 4 21 6 7 9 13 6 13 -4 0 -3 10 2 22 4 12 5 37 1 55 -6 25 -5
33 6 33 8 0 14 5 14 10 0 6 -4 10 -10 10 -5 0 -10 5 -10 11 0 5 4 8 8 5 4 -2
8 4 8 14 0 10 -4 16 -8 14 -4 -3 -4 6 1 19 5 14 7 34 4 46 -3 13 -1 21 8 21
10 0 10 3 1 12 -16 16 -15 28 2 28 17 0 28 37 12 45 -8 3 -8 7 2 11 6 3 12 12
12 20 0 9 -4 12 -10 9 -5 -3 -10 -2 -10 3 0 6 7 13 16 16 8 3 12 11 9 16 -4 6
-1 9 7 8 8 -2 15 11 18 37 4 34 9 40 30 42 14 1 20 0 13 -3 -7 -3 -10 -11 -7
-19 3 -7 -3 -15 -13 -18 -10 -3 2 -3 27 0 42 5 44 4 25 -10 -20 -15 -20 -16 5
-26 24 -9 24 -10 3 -10 -16 -1 -21 -6 -17 -16 4 -8 9 -13 13 -10 4 2 15 -27
25 -65 10 -37 24 -79 31 -93 7 -13 18 -47 25 -76 6 -28 17 -51 23 -51 7 0 5
-5 -3 -10 -13 -8 -12 -10 4 -10 15 0 16 -3 7 -14 -9 -11 -9 -15 1 -20 11 -5
11 -7 0 -12 -10 -5 -10 -8 2 -18 9 -6 23 -40 32 -76 9 -36 19 -69 22 -75 8
-12 13 -41 15 -75 1 -14 4 -27 7 -30 3 -3 14 -27 24 -55 10 -27 24 -63 31 -80
7 -16 18 -43 24 -60 6 -16 16 -43 22 -60 16 -38 16 -41 18 -66 0 -11 5 -17 11
-14 6 3 7 -1 4 -10 -4 -8 -1 -22 6 -30 10 -12 41 -15 156 -15 143 0 144 0 143
23 -1 16 -2 18 -6 5 -8 -32 -23 -19 -24 20 -1 33 -2 34 -9 12 -8 -25 -8 -25
-9 -2 -1 13 -6 20 -11 17 -5 -3 -10 3 -10 15 0 11 -11 32 -25 45 -18 16 -22
25 -13 28 10 4 10 6 1 6 -7 1 -13 7 -13 14 0 6 -9 23 -19 36 -10 14 -17 30
-14 37 2 7 0 15 -6 19 -6 3 -11 15 -11 26 0 10 -4 19 -9 19 -7 0 -47 115 -76
218 -3 12 -10 22 -15 22 -4 0 -6 9 -3 21 3 12 1 24 -5 28 -5 3 -12 20 -16 36
-8 46 -18 75 -25 75 -3 0 -5 17 -5 37 1 21 -3 41 -8 44 -6 4 -11 18 -11 33 -1
14 -6 26 -10 26 -5 0 -5 5 -2 10 3 6 3 16 -2 23 -10 16 -13 34 -15 84 -1 23
-6 39 -11 36 -5 -3 -6 7 -2 26 4 20 2 37 -5 46 -6 8 -10 22 -9 32 1 10 -1 25
-4 33 -4 8 -8 26 -9 40 -2 14 -7 30 -11 37 -4 6 -1 14 5 16 10 4 9 8 -2 16 -8
6 -10 11 -4 11 6 0 10 15 10 34 -1 25 -5 32 -16 28 -12 -4 -12 -2 -3 8 7 8 9
19 4 29 -8 15 -12 71 -6 71 29 0 72 -60 59 -82 -4 -7 -3 -8 5 -4 6 4 14 0 17
-11 4 -10 20 -47 36 -83 17 -36 39 -87 50 -115 11 -27 76 -164 144 -303 138
-278 166 -361 152 -447 -4 -27 -5 -97 -2 -155 8 -126 7 -141 -3 -149 -7 -5 -9
-38 -4 -78 1 -10 108 -13 504 -12 276 1 491 5 477 9 -17 5 -19 8 -7 9 18 1 24
21 6 21 -18 0 -48 40 -42 56 3 9 -2 14 -16 14 -24 0 -27 10 -9 28 17 17 2 28
-17 12 -12 -10 -15 -10 -15 4 0 9 7 16 15 16 8 0 15 5 15 10 0 6 -7 10 -15 10
-8 0 -15 7 -15 16 0 9 -8 23 -17 30 -16 11 -16 17 -6 44 10 26 9 34 -5 51 -9
10 -24 19 -34 19 -21 0 -24 29 -5 49 10 11 9 13 -5 8 -13 -5 -18 -1 -18 11 0
9 -11 30 -25 45 -14 15 -23 27 -19 27 4 0 -2 9 -14 20 -12 11 -24 20 -28 20
-4 0 -23 16 -41 36 -22 25 -33 31 -33 20 0 -23 -57 -22 -63 1 -4 14 -5 12 -6
-4 -1 -16 -7 -23 -21 -23 -11 0 -20 -4 -20 -10 0 -5 -9 -10 -20 -10 -15 0 -20
-7 -20 -26 0 -14 -4 -23 -10 -19 -5 3 -10 15 -10 26 0 12 -7 19 -20 19 -11 0
-23 7 -26 15 -4 8 -11 12 -18 8 -6 -3 -8 -3 -4 2 4 4 3 14 -3 22 -6 7 -8 13
-4 13 4 0 2 7 -5 15 -9 11 -10 15 -1 15 8 0 7 6 -3 16 -18 18 -21 34 -5 34 6
0 1 12 -11 27 -13 17 -19 35 -16 49 4 13 1 26 -4 29 -6 4 -8 11 -5 16 4 5 2 9
-4 9 -6 0 -7 7 -4 17 4 11 3 14 -5 9 -8 -5 -12 0 -12 14 0 14 4 19 13 14 6 -4
5 1 -4 12 -8 10 -14 31 -13 47 2 15 0 27 -4 27 -4 0 -8 19 -9 43 -2 23 -7 43
-13 45 -6 2 -8 8 -4 13 3 5 -1 22 -9 37 -7 16 -12 39 -10 51 2 18 -1 22 -12
17 -13 -5 -14 -2 -4 15 6 12 7 19 1 15 -14 -8 -22 30 -9 43 8 8 7 11 -2 11 -7
0 -11 6 -8 14 3 8 -1 17 -9 20 -8 3 -14 16 -14 29 0 13 -3 27 -7 31 -4 3 -8
16 -10 27 -2 11 -10 27 -18 35 -18 18 -20 28 -4 18 8 -5 8 -1 0 13 -6 11 -8
23 -4 26 3 4 -2 9 -11 13 -9 3 -14 10 -11 14 3 5 1 11 -5 15 -6 4 -8 11 -4 16
3 6 -3 13 -14 16 -11 3 -19 10 -16 17 3 7 -7 18 -21 24 -14 7 -23 17 -20 22 3
6 1 10 -6 10 -6 0 -18 8 -26 18 -10 12 -13 13 -10 2 2 -8 -5 -23 -15 -34 -14
-15 -15 -22 -6 -28 10 -6 10 -10 -2 -18 -12 -8 -12 -10 -1 -10 10 0 11 -3 3
-13 -15 -18 -18 -118 -4 -144 14 -26 16 -44 2 -23 -17 27 -21 3 -7 -39 8 -23
11 -43 7 -46 -15 -10 -8 -65 8 -65 13 0 13 -2 0 -17 -18 -21 -33 -62 -30 -80
2 -8 -9 -13 -29 -13 -29 0 -31 2 -25 26 6 24 6 25 -9 10 -21 -21 -23 -20 -18
7 3 15 -7 34 -31 61 -20 21 -33 42 -30 47 3 5 0 9 -6 9 -7 0 -10 6 -8 12 3 7
-4 21 -14 32 -10 11 -18 26 -18 33 0 7 -4 13 -8 13 -5 0 -19 24 -31 53 -26 57
-32 70 -67 132 -52 94 -73 137 -118 243 -25 60 -46 118 -46 129 0 11 -3 23 -6
26 -8 7 -37 87 -60 162 -8 28 -21 64 -29 80 -26 58 -53 140 -60 180 -8 54 -25
81 -25 40z m710 -799 c0 -11 -19 -15 -25 -6 -3 5 1 10 9 10 9 0 16 -2 16 -4z
m-481 -133 c2 -2 -5 -3 -17 -3 -14 0 -22 6 -22 16 0 14 3 15 18 3 9 -7 19 -15
21 -16z m438 -55 c-3 -8 -6 -5 -6 6 -1 11 2 17 5 13 3 -3 4 -12 1 -19z m-690
-214 c-3 -3 -12 -4 -19 -1 -8 3 -5 6 6 6 11 1 17 -2 13 -5z m0 -30 c-3 -3 -12
-4 -19 -1 -8 3 -5 6 6 6 11 1 17 -2 13 -5z m648 -84 c-3 -5 -11 -10 -16 -10
-6 0 -7 5 -4 10 3 6 11 10 16 10 6 0 7 -4 4 -10z m395 -380 c0 -5 -2 -10 -4
-10 -3 0 -8 5 -11 10 -3 6 -1 10 4 10 6 0 11 -4 11 -10z m500 -386 c0 -8 -4
-12 -10 -9 -5 3 -10 10 -10 16 0 5 5 9 10 9 6 0 10 -7 10 -16z"/>
<path d="M6790 2355 c0 -19 9 -58 20 -87 11 -29 20 -54 20 -55 0 -2 -24 -3
-52 -3 l-53 0 44 -42 c24 -24 62 -70 84 -103 95 -142 221 -285 250 -285 2 0 4
15 3 34 0 19 -5 32 -10 29 -4 -3 -5 5 -1 17 6 18 4 22 -8 17 -9 -3 -18 1 -21
9 -9 24 -7 31 4 14 6 -9 10 -10 10 -3 0 6 -4 15 -10 18 -5 3 -10 17 -10 31 0
13 -4 24 -10 24 -5 0 -10 7 -10 15 0 8 -4 15 -8 15 -5 0 -16 15 -25 33 -9 17
-41 66 -71 107 -58 80 -126 205 -126 233 0 9 -4 17 -10 17 -5 0 -10 -16 -10
-35z"/>
<path d="M6511 2034 c-1 -61 17 -104 117 -265 95 -154 143 -243 186 -349 15
-36 34 -79 42 -97 18 -41 18 -42 -11 -38 -18 1 -24 -2 -23 -13 2 -8 -3 -17
-11 -20 -10 -3 -12 3 -6 29 6 33 6 33 -9 13 -8 -12 -32 -25 -53 -29 -21 -4
-46 -14 -55 -22 -15 -14 -20 -14 -34 -2 -16 13 -17 11 -11 -24 l6 -39 -20 23
-20 24 -28 -33 c-22 -25 -37 -32 -65 -32 -42 0 -50 -20 -8 -21 28 -1 24 -3
-20 -13 -19 -4 -26 -11 -22 -21 4 -8 1 -15 -5 -15 -6 0 -11 7 -11 15 0 8 -4
15 -10 15 -5 0 -10 -11 -10 -25 0 -14 -4 -25 -10 -25 -5 0 -10 -7 -10 -16 0
-8 -4 -13 -8 -10 -4 2 -26 -4 -47 -14 -27 -12 -33 -19 -21 -19 24 -1 9 -20
-20 -26 -11 -2 -21 -4 -24 -5 -3 0 4 -7 15 -15 18 -15 18 -16 -13 -27 -18 -7
-32 -18 -32 -24 0 -7 -8 -15 -17 -19 -16 -7 -15 -9 7 -16 22 -7 21 -8 -9 -5
-26 2 -35 -1 -39 -16 -3 -12 -14 -18 -36 -18 -26 -1 -28 -2 -13 -11 9 -5 21
-8 26 -4 5 3 12 1 16 -5 3 -6 -3 -10 -15 -10 -17 0 -20 -4 -15 -22 4 -16 4
-19 -3 -9 -13 19 -34 4 -27 -20 5 -14 0 -20 -20 -25 -20 -5 -23 -9 -13 -16 10
-7 9 -11 -5 -22 -18 -14 -17 -15 15 -19 l33 -4 -32 -1 c-18 -1 -33 -6 -33 -12
0 -5 15 -11 33 -11 l32 -1 -30 -8 c-25 -6 -26 -8 -7 -9 13 0 21 -5 17 -11 -3
-5 -12 -7 -19 -4 -8 3 -17 1 -21 -5 -3 -6 -1 -11 5 -11 6 0 8 -5 5 -10 -11
-17 -25 0 -25 29 0 17 -5 28 -14 28 -7 0 -12 -7 -10 -16 12 -66 15 -73 31 -67
14 6 14 4 -1 -18 -9 -14 -16 -35 -16 -47 0 -16 -3 -19 -13 -11 -16 13 -32 3
-33 -20 -2 -56 -5 -67 -18 -70 -12 -3 -12 -5 0 -16 12 -11 14 -10 14 3 0 18
21 20 38 3 18 -18 14 -30 -8 -23 -14 4 -20 2 -20 -8 0 -9 -6 -17 -12 -20 -7
-2 -9 -8 -5 -13 4 -5 12 -2 17 6 7 12 12 12 22 2 9 -9 9 -12 -4 -12 -9 0 -23
-8 -30 -18 -7 -10 -22 -24 -33 -30 -20 -11 -20 -11 2 -12 12 0 25 4 28 10 8
13 45 13 45 0 0 -5 -3 -10 -7 -10 -5 0 -19 -9 -33 -20 -20 -16 -21 -19 -5 -13
18 6 18 5 6 -10 -9 -12 -10 -17 -2 -17 7 0 10 -4 7 -9 -3 -5 -16 -7 -27 -4
-16 4 -20 2 -17 -8 3 -8 16 -14 29 -15 43 -1 50 -4 44 -14 -5 -8 -12 -7 -23 2
-10 9 -13 9 -9 1 4 -7 -2 -21 -14 -32 l-21 -19 29 -16 28 -16 -30 6 c-16 4
-39 13 -50 20 -26 18 -40 18 -22 -1 8 -7 26 -17 41 -21 30 -7 34 -20 9 -27
-16 -4 -16 -5 -2 -6 9 0 19 -7 22 -14 4 -10 -2 -13 -19 -9 -14 2 -24 0 -24 -7
0 -16 107 -15 113 2 4 9 6 9 6 -1 1 -18 1719 -16 1808 3 105 22 194 56 320
121 66 34 124 60 127 57 3 -4 6 -1 6 5 0 6 -4 14 -10 17 -5 3 -10 1 -10 -6 0
-7 -3 -10 -6 -6 -4 3 -27 -5 -53 -17 -25 -13 -73 -36 -106 -51 -33 -14 -73
-33 -90 -41 -72 -34 -166 -46 -290 -38 -66 4 -122 8 -125 9 -9 2 -89 17 -97
18 -20 2 -87 44 -91 56 -4 11 4 13 39 7 24 -4 76 -9 114 -10 l70 -3 6 31 6 31
2 -32 c1 -28 4 -32 31 -31 29 1 30 3 31 50 2 61 2 65 11 73 4 4 5 -20 3 -54
-3 -54 -2 -61 14 -61 17 0 18 8 14 77 -4 59 -2 75 7 67 6 -6 12 -41 12 -78 1
-42 6 -66 13 -66 8 0 10 26 7 88 -3 66 -1 84 8 76 6 -6 14 -46 17 -88 5 -65 8
-76 24 -76 14 0 19 7 18 28 0 23 -1 24 -8 7 -8 -19 -18 56 -26 178 -4 67 11
39 24 -46 16 -101 31 -157 43 -157 5 0 7 8 4 18 -19 62 -36 241 -25 248 5 3 9
-4 9 -16 0 -41 45 -245 48 -218 2 15 -4 65 -12 111 -9 46 -16 97 -15 113 0 27
13 -19 50 -181 20 -91 24 -31 5 89 -25 164 -29 212 -16 200 5 -5 15 -37 21
-70 12 -68 52 -247 56 -253 2 -2 5 -2 8 1 4 3 -1 36 -10 72 -18 82 -19 126 -2
126 7 0 8 3 2 8 -6 4 -19 39 -29 77 -18 67 -28 113 -19 87 3 -6 8 -12 13 -12
12 0 100 -273 100 -309 0 -17 5 -31 11 -31 16 0 2 101 -21 154 -9 23 -21 57
-25 76 -4 19 -16 61 -26 94 -11 32 -19 64 -19 70 1 23 42 -73 71 -166 17 -54
35 -100 40 -103 5 -4 9 -16 9 -28 1 -22 29 -81 30 -61 0 6 -13 51 -30 100 -26
78 -59 205 -60 227 0 4 4 7 9 7 5 0 13 -17 19 -37 19 -67 91 -276 98 -282 8
-8 3 11 -57 201 -27 86 -49 164 -48 175 0 14 2 14 6 3 3 -8 14 -35 25 -60 11
-25 25 -58 32 -75 8 -16 26 -68 41 -115 27 -85 42 -117 32 -70 -13 66 -70 236
-80 242 -7 4 -9 8 -5 8 4 0 0 16 -8 35 -15 37 -19 63 -6 51 4 -4 7 -11 8 -14
1 -7 29 -73 59 -137 8 -16 30 -72 48 -124 19 -52 37 -90 40 -85 3 6 -2 28 -12
49 -10 22 -28 72 -41 110 -12 39 -26 75 -31 80 -14 18 -67 169 -73 208 -3 22
-2 37 4 37 6 0 10 -10 10 -23 0 -13 4 -27 8 -32 5 -6 14 -35 22 -65 7 -30 19
-59 26 -65 7 -5 22 -35 34 -65 40 -100 64 -155 73 -165 5 -5 -4 22 -18 60 -15
39 -36 97 -47 130 -12 33 -25 65 -29 71 -13 17 -39 126 -38 159 2 27 2 27 6 5
3 -14 9 -29 13 -35 5 -5 11 -28 15 -50 4 -22 14 -51 22 -64 9 -13 42 -90 75
-170 32 -80 56 -130 52 -111 -3 19 -13 47 -21 63 -30 60 -74 200 -71 230 2 26
13 8 58 -106 30 -76 56 -134 58 -129 2 6 -8 36 -21 69 -13 32 -36 93 -51 135
-16 43 -31 76 -36 73 -4 -2 -11 18 -14 46 -7 52 -1 77 10 43 9 -30 44 -112 85
-201 21 -45 43 -100 49 -122 6 -23 13 -41 16 -41 9 0 -9 56 -57 178 -44 109
-49 130 -48 195 1 51 3 65 9 47 4 -14 8 -43 9 -65 1 -23 5 -45 9 -50 5 -6 21
-41 36 -78 16 -37 30 -66 32 -64 2 2 -7 36 -21 76 -34 98 -62 288 -45 304 7 7
10 7 7 1 -3 -6 2 -51 12 -100 21 -101 38 -95 22 7 -12 72 -14 146 -4 136 3 -4
7 -24 9 -45 1 -20 8 -50 13 -65 6 -16 9 -40 6 -55 -4 -21 -3 -23 3 -7 8 16 12
11 29 -35 11 -30 23 -62 26 -70 16 -43 5 27 -12 75 -10 29 -16 56 -13 59 3 3
0 6 -6 6 -16 0 -36 166 -21 176 5 3 9 -15 9 -40 0 -27 16 -90 40 -158 22 -62
40 -120 40 -128 0 -20 55 -136 68 -144 6 -3 -3 18 -18 47 -16 28 -35 82 -44
118 -8 36 -27 96 -41 134 -14 37 -23 70 -21 72 2 3 0 18 -4 34 -5 17 -5 31 1
34 5 4 9 -4 9 -16 0 -19 29 -127 37 -138 2 -2 5 -2 8 1 3 2 -4 31 -15 63 -22
65 -25 95 -9 95 6 0 9 -6 6 -14 -3 -7 -2 -17 2 -22 4 -5 16 -38 26 -74 10 -36
22 -69 27 -75 12 -12 0 37 -18 84 -16 37 -18 71 -6 71 5 0 14 -24 21 -52 15
-58 37 -104 26 -53 -4 17 -8 37 -10 45 -2 8 -7 33 -13 55 -10 46 -16 213 -7
203 4 -3 8 -41 10 -83 4 -77 20 -167 36 -195 14 -25 11 8 -6 64 -10 32 -14 83
-13 145 l2 96 3 -90 c2 -49 9 -94 14 -100 7 -7 8 2 4 28 -5 24 -3 37 3 37 6 0
14 -16 18 -35 9 -50 16 -37 8 14 -5 28 -12 41 -23 41 -13 0 -13 2 -2 9 11 7
11 9 0 14 -8 3 -2 6 13 6 15 1 30 -4 33 -9 3 -5 1 -10 -6 -10 -7 0 -9 -3 -6
-7 12 -12 48 29 41 49 -5 17 10 24 39 19 4 -1 5 36 1 82 -7 87 4 149 45 247
80 191 111 259 163 358 33 63 57 116 55 119 -3 2 -23 -22 -46 -54 -22 -32 -48
-67 -56 -78 -8 -10 -15 -28 -15 -38 0 -23 -83 -190 -116 -234 -33 -43 -204
-218 -204 -208 0 4 -7 2 -15 -5 -11 -9 -13 -16 -5 -24 5 -5 10 -16 10 -24 0
-10 -4 -9 -17 4 -17 16 -18 16 -24 -7 -4 -13 -7 -18 -8 -11 -2 23 -22 12 -33
-18 -9 -29 -11 -29 -24 -13 -12 16 -13 16 -9 -7 11 -59 14 -120 6 -120 -5 0
-9 22 -9 50 -1 27 -5 58 -11 67 -8 13 -9 4 -6 -37 4 -46 3 -49 -4 -17 -10 47
-25 63 -19 20 5 -38 -4 -43 -21 -10 -10 19 -11 16 -7 -23 3 -25 8 -55 11 -65
6 -21 -11 14 -26 53 -5 12 -13 22 -19 22 -7 0 -7 -6 0 -21 6 -11 9 -25 6 -32
-2 -7 -5 -5 -5 4 -1 19 -31 48 -31 30 0 -6 -6 -11 -14 -11 -7 0 -16 -9 -19
-20 -3 -11 -1 -20 4 -20 5 0 9 -4 9 -10 0 -18 -18 -10 -25 10 -8 24 -28 16
-21 -8 2 -10 7 -27 11 -39 4 -14 2 -23 -4 -23 -6 0 -11 9 -11 19 0 26 -10 51
-21 51 -12 0 -11 -52 1 -84 5 -14 6 -26 1 -26 -5 0 -14 20 -21 44 -9 32 -16
43 -26 39 -10 -3 -12 -13 -9 -27 14 -49 15 -61 3 -36 -7 14 -18 31 -25 38 -11
11 -14 11 -19 -2 -3 -9 -10 -13 -15 -10 -5 3 -9 -2 -9 -10 0 -8 -5 -18 -12
-22 -7 -4 -8 -3 -4 4 4 7 2 12 -3 12 -6 0 -11 -4 -11 -10 0 -5 -7 -7 -16 -3
-14 5 -16 2 -10 -22 6 -25 6 -26 -9 -11 -22 22 -38 20 -32 -4 4 -16 2 -18 -13
-10 -27 15 -32 12 -26 -12 3 -13 3 -17 0 -10 -8 17 -33 15 -40 -3 -5 -12 -10
-13 -20 -4 -14 12 -17 8 -16 -26 1 -17 0 -17 -4 -2 -4 13 -12 16 -27 12 -45
-13 -87 -36 -87 -48 0 -9 -2 -9 -8 1 -6 9 -18 7 -50 -8 -23 -11 -45 -19 -49
-19 -4 1 -15 0 -23 -4 -93 -35 -329 -60 -366 -39 -15 9 -4 12 56 13 41 0 106
8 144 17 l70 17 -60 31 c-32 17 -58 36 -57 42 2 6 -6 16 -16 21 -10 6 -21 21
-25 33 -8 30 -168 195 -231 239 -100 69 -118 85 -185 169 -37 47 -97 115 -133
152 -37 37 -67 74 -67 82 0 9 -4 16 -8 16 -5 0 -15 12 -23 28 -7 15 -30 53
-51 84 -21 31 -38 60 -38 63 0 3 -9 16 -21 28 -21 22 -74 118 -96 172 l-11 30
-1 -41z m1971 -756 c-8 -8 -9 -4 -5 13 4 13 8 18 11 10 2 -7 -1 -18 -6 -23z
m85 -5 c-3 -10 -5 -4 -5 12 0 17 2 24 5 18 2 -7 2 -21 0 -30z m-1687 -13 c0
-5 -2 -10 -4 -10 -3 0 -8 5 -11 10 -3 6 -1 10 4 10 6 0 11 -4 11 -10z m1632
-33 c1 -20 -1 -39 -5 -43 -4 -4 -7 14 -7 41 0 56 8 57 12 2z m-27 -97 c4 -47
9 -88 12 -92 2 -5 -2 -8 -9 -8 -10 0 -15 19 -16 73 -1 39 -4 90 -7 112 -4 29
-3 34 4 20 5 -12 12 -59 16 -105z m-61 -61 c3 -21 1 -41 -3 -44 -5 -2 -11 21
-14 53 -3 31 -8 71 -11 87 -3 17 1 11 9 -14 8 -24 17 -61 19 -82z m-110 85 c3
-9 6 -23 6 -32 -1 -12 -5 -10 -15 8 -8 14 -14 28 -15 33 0 13 18 7 24 -9z
m231 6 c3 -5 1 -10 -4 -10 -6 0 -11 5 -11 10 0 6 2 10 4 10 3 0 8 -4 11 -10z
m95 0 c0 -5 -7 -10 -15 -10 -8 0 -15 5 -15 10 0 6 7 10 15 10 8 0 15 -4 15
-10z m-188 -55 c2 -19 0 -35 -4 -35 -4 0 -8 16 -8 35 0 19 2 35 4 35 2 0 6
-16 8 -35z m98 -14 c0 -48 -13 -72 -30 -55 -13 13 -24 84 -13 84 5 0 10 -15
11 -32 2 -18 8 -37 14 -43 7 -7 9 5 4 43 -4 33 -3 52 4 52 5 0 10 -22 10 -49z
m-250 -13 c0 -4 -6 -5 -14 -2 -8 3 -12 12 -9 21 5 12 7 12 14 1 5 -7 9 -16 9
-20z m88 -33 c0 -29 0 -29 -8 -5 -4 14 -8 36 -8 50 -1 23 0 23 8 5 5 -11 8
-33 8 -50z m-25 -27 c3 -21 2 -38 -4 -38 -5 0 -9 10 -9 23 0 12 -3 33 -6 47
-5 17 -3 22 3 15 6 -5 13 -27 16 -47z m-49 26 c4 -10 1 -14 -6 -12 -15 5 -23
28 -10 28 5 0 13 -7 16 -16z m-41 -14 c3 -11 1 -20 -4 -20 -5 0 -9 9 -9 20 0
11 2 20 4 20 2 0 6 -9 9 -20z m-138 -20 c3 -5 1 -10 -4 -10 -6 0 -11 5 -11 10
0 6 2 10 4 10 3 0 8 -4 11 -10z m190 -20 c1 -10 -2 -17 -7 -14 -4 3 -8 15 -8
26 0 26 13 15 15 -12z m225 20 c0 -5 -4 -10 -10 -10 -5 0 -10 5 -10 10 0 6 5
10 10 10 6 0 10 -4 10 -10z m-281 -82 c1 -10 -3 -18 -9 -18 -5 0 -10 19 -9 43
1 36 2 38 9 17 4 -14 8 -33 9 -42z m36 -39 c2 -33 7 -65 10 -70 4 -5 2 -9 -4
-9 -11 0 -18 33 -25 125 -3 42 -2 53 4 37 5 -12 12 -50 15 -83z m-75 81 c0 -5
-5 -10 -11 -10 -5 0 -7 5 -4 10 3 6 8 10 11 10 2 0 4 -4 4 -10z m110 -56 c0
-20 5 -34 13 -34 8 0 9 -3 1 -8 -6 -4 -13 -14 -16 -22 -3 -8 -7 13 -9 47 -2
33 -1 59 4 56 4 -2 7 -20 7 -39z m-103 7 c0 -11 -5 -17 -9 -15 -11 7 -10 34 1
34 6 0 9 -9 8 -19z m-75 -15 c7 4 8 2 4 -5 -10 -15 -26 -4 -25 17 1 15 2 15 6
-1 2 -9 9 -14 15 -11z m48 -16 c0 -11 -2 -20 -4 -20 -2 0 -6 9 -9 20 -3 11 -1
20 4 20 5 0 9 -9 9 -20z m60 1 c0 -6 -4 -13 -10 -16 -5 -3 -10 1 -10 9 0 9 5
16 10 16 6 0 10 -4 10 -9z m-153 -23 c-3 -8 -6 -5 -6 6 -1 11 2 17 5 13 3 -3
4 -12 1 -19z m57 -10 c10 -38 6 -45 -9 -18 -17 29 -18 40 -6 40 5 0 11 -10 15
-22z m-220 -3 c3 -8 1 -15 -4 -15 -6 0 -10 7 -10 15 0 8 2 15 4 15 2 0 6 -7
10 -15z m41 5 c3 -5 1 -10 -4 -10 -6 0 -11 5 -11 10 0 6 2 10 4 10 3 0 8 -4
11 -10z m55 -10 c0 -5 -4 -10 -10 -10 -5 0 -10 5 -10 10 0 6 5 10 10 10 6 0
10 -4 10 -10z m230 -32 c0 -10 -4 -18 -10 -18 -5 0 -10 15 -10 33 0 24 3 28
10 17 5 -8 10 -23 10 -32z m-150 22 c0 -5 -5 -10 -11 -10 -5 0 -7 5 -4 10 3 6
8 10 11 10 2 0 4 -4 4 -10z m-120 -14 c0 -8 3 -22 7 -32 4 -11 3 -15 -4 -11
-13 8 -23 57 -12 57 5 0 9 -6 9 -14z m227 -18 c-3 -7 -5 -2 -5 12 0 14 2 19 5
13 2 -7 2 -19 0 -25z m-257 -36 c0 -3 -7 3 -15 14 -8 10 -14 26 -15 34 0 8 7
2 15 -14 8 -15 15 -31 15 -34z m82 28 c3 -16 3 -30 1 -30 -7 0 -21 45 -16 53
7 13 11 8 15 -23z m95 -2 c-3 -8 -6 -5 -6 6 -1 11 2 17 5 13 3 -3 4 -12 1 -19z
m-23 -59 c10 -39 15 -73 12 -76 -3 -4 -6 1 -6 10 0 10 -4 17 -9 17 -5 0 -12
21 -16 48 -5 26 -9 53 -11 60 -1 6 1 12 5 12 3 0 15 -32 25 -71z m147 -14 c18
-81 6 -87 -18 -7 -15 52 -17 69 -7 65 7 -2 18 -28 25 -58z m-384 23 c-3 -8 -6
-5 -6 6 -1 11 2 17 5 13 3 -3 4 -12 1 -19z m102 -21 c0 -21 -1 -21 -9 -2 -12
28 -12 37 0 30 6 -3 10 -16 9 -28z m101 -21 c7 -24 10 -50 7 -58 -3 -7 -6 -3
-6 9 -1 12 -5 24 -10 27 -5 3 -11 21 -13 40 -5 47 6 37 22 -18z m-1936 9 c-7
-16 -24 -21 -24 -6 0 8 7 13 27 20 1 1 0 -6 -3 -14z m1896 -30 c0 -5 -5 -3
-10 5 -5 8 -10 20 -10 25 0 6 5 3 10 -5 5 -8 10 -19 10 -25z m-81 -18 c0 -21
-1 -21 -9 -2 -12 28 -12 37 0 30 6 -3 10 -16 9 -28z m54 -22 c3 -17 2 -23 0
-15 -3 8 -12 24 -19 35 -19 26 -18 43 1 25 8 -9 16 -29 18 -45z m-99 29 c3 -8
2 -12 -4 -9 -6 3 -10 10 -10 16 0 14 7 11 14 -7z m-47 -26 c-3 -8 -6 -5 -6 6
-1 11 2 17 5 13 3 -3 4 -12 1 -19z m202 -53 c0 -11 -7 0 -15 25 -17 56 -17 64
1 25 8 -16 14 -39 14 -50z m-119 -11 c0 -8 -4 -12 -10 -9 -5 3 -10 10 -10 16
0 5 5 9 10 9 6 0 10 -7 10 -16z m7 -46 c-3 -8 -6 -5 -6 6 -1 11 2 17 5 13 3
-3 4 -12 1 -19z m-23 -67 c-7 -8 -14 6 -19 40 l-5 34 14 -35 c7 -19 12 -37 10
-39z m-1904 -26 c0 -14 -4 -25 -10 -25 -5 0 -10 11 -10 25 0 14 5 25 10 25 6
0 10 -11 10 -25z m1867 -7 c-3 -8 -6 -5 -6 6 -1 11 2 17 5 13 3 -3 4 -12 1
-19z m-1837 -128 c0 -5 -2 -10 -4 -10 -3 0 -8 5 -11 10 -3 6 -1 10 4 10 6 0
11 -4 11 -10z m1657 -142 c-2 -13 -4 -5 -4 17 -1 22 1 32 4 23 2 -10 2 -28 0
-40z m-1647 3 c0 -5 -9 -7 -20 -4 -11 3 -20 7 -20 9 0 2 9 4 20 4 11 0 20 -4
20 -9z m-40 -61 c0 -5 -4 -10 -10 -10 -5 0 -10 5 -10 10 0 6 5 10 10 10 6 0
10 -4 10 -10z m-15 -60 c3 -5 -3 -10 -15 -10 -12 0 -18 5 -15 10 3 6 10 10 15
10 5 0 12 -4 15 -10z"/>
<path d="M8850 1800 c-6 -11 -8 -20 -6 -20 3 0 10 9 16 20 6 11 8 20 6 20 -3
0 -10 -9 -16 -20z"/>
<path d="M5517 1516 c-4 -10 -1 -13 9 -9 7 3 14 9 14 14 0 14 -17 10 -23 -5z"/>
<path d="M5529 1488 c-7 -26 -7 -81 0 -99 8 -19 10 -11 10 39 1 34 -1 62 -4
62 -3 0 -5 -1 -6 -2z"/>
<path d="M7430 1480 c0 -36 67 -120 95 -120 7 0 15 -7 19 -15 9 -24 36 -18 36
8 0 22 -48 87 -64 87 -4 0 -16 9 -27 19 -23 21 -59 34 -59 21z"/>
<path d="M8880 1092 c0 -9 50 -28 100 -37 26 -5 31 -3 20 4 -8 6 -23 11 -32
11 -10 0 -18 4 -18 10 0 5 8 7 18 4 14 -5 15 -4 2 5 -17 12 -90 15 -90 3z"/>
<path d="M795 1040 c-3 -6 1 -7 9 -4 18 7 21 14 7 14 -6 0 -13 -4 -16 -10z"/>
<path d="M8620 985 c0 -14 4 -25 9 -25 4 0 6 11 3 25 -2 14 -6 25 -8 25 -2 0
-4 -11 -4 -25z"/>
<path d="M8652 975 c0 -16 2 -22 5 -12 2 9 2 23 0 30 -3 6 -5 -1 -5 -18z"/>
<path d="M7778 983 c7 -3 16 -2 19 1 4 3 -2 6 -13 5 -11 0 -14 -3 -6 -6z"/>
<path d="M8540 844 c0 -17 52 -165 57 -161 2 3 -8 40 -22 83 -26 76 -35 97
-35 78z"/>
<path d="M8592 810 c0 -14 2 -19 5 -12 2 6 2 18 0 25 -3 6 -5 1 -5 -13z"/>
<path d="M8444 794 c3 -9 6 -21 6 -27 0 -7 9 -23 19 -36 18 -24 18 -23 2 27
-9 29 -20 52 -25 52 -4 0 -5 -7 -2 -16z"/>
<path d="M8418 764 c-3 -3 4 -26 17 -52 12 -26 28 -65 35 -87 7 -22 15 -35 17
-29 2 7 -8 41 -22 75 -15 35 -28 69 -29 76 -3 16 -11 24 -18 17z"/>
<path d="M8611 735 c16 -37 34 -65 41 -65 5 0 -1 15 -13 33 -26 38 -33 46 -28
32z"/>
<path d="M8490 693 c1 -17 49 -107 49 -92 1 16 -36 99 -44 99 -3 0 -5 -3 -5
-7z"/>
<path d="M1905 660 c-3 -5 -1 -10 4 -10 6 0 11 5 11 10 0 6 -2 10 -4 10 -3 0
-8 -4 -11 -10z"/>
<path d="M8617 640 c9 -16 22 -30 27 -30 5 0 2 8 -7 18 -10 10 -17 24 -17 30
0 7 -5 12 -11 12 -5 0 -2 -13 8 -30z"/>
<path d="M8660 650 c0 -5 5 -10 11 -10 5 0 7 5 4 10 -3 6 -8 10 -11 10 -2 0
-4 -4 -4 -10z"/>
<path d="M9440 628 c0 -7 -26 -66 -59 -132 -67 -138 -87 -193 -97 -263 -5 -38
-3 -52 10 -62 14 -12 16 -10 16 16 0 16 6 35 12 41 7 7 20 38 29 70 17 58 22
74 65 192 24 68 41 150 30 150 -3 0 -6 -5 -6 -12z"/>
<path d="M8490 571 c0 -6 4 -13 10 -16 6 -3 7 1 4 9 -7 18 -14 21 -14 7z"/>
<path d="M8540 570 c0 -5 7 -10 16 -10 8 0 12 5 9 10 -3 6 -10 10 -16 10 -5 0
-9 -4 -9 -10z"/>
<path d="M6025 530 c3 -5 8 -10 11 -10 2 0 4 5 4 10 0 6 -5 10 -11 10 -5 0 -7
-4 -4 -10z"/>
<path d="M8480 475 c0 -5 5 -17 10 -25 5 -8 10 -10 10 -5 0 6 -5 17 -10 25 -5
8 -10 11 -10 5z"/>
<path d="M5987 435 c-4 -8 -2 -17 3 -20 6 -4 10 3 10 14 0 25 -6 27 -13 6z"/>
<path d="M8717 420 c-9 -11 -13 -21 -9 -23 11 -6 45 30 34 36 -4 4 -16 -3 -25
-13z"/>
<path d="M8461 394 c0 -11 3 -14 6 -6 3 7 2 16 -1 19 -3 4 -6 -2 -5 -13z"/>
<path d="M8071 373 c-1 -19 29 -156 36 -162 10 -10 -6 95 -22 136 -7 21 -14
33 -14 26z"/>
<path d="M5958 323 c6 -2 18 -2 25 0 6 3 1 5 -13 5 -14 0 -19 -2 -12 -5z"/>
<path d="M8540 320 c0 -5 5 -10 10 -10 6 0 10 5 10 10 0 6 -4 10 -10 10 -5 0
-10 -4 -10 -10z"/>
<path d="M4352 280 c0 -14 2 -19 5 -12 2 6 2 18 0 25 -3 6 -5 1 -5 -13z"/>
<path d="M5928 293 c7 -3 16 -2 19 1 4 3 -2 6 -13 5 -11 0 -14 -3 -6 -6z"/>
<path d="M8450 274 c-17 -10 -18 -13 -5 -8 11 3 25 7 32 7 7 0 10 4 7 9 -6 10
-4 10 -34 -8z"/>
<path d="M2391 254 c0 -11 3 -14 6 -6 3 7 2 16 -1 19 -3 4 -6 -2 -5 -13z"/>
<path d="M8401 244 c0 -11 3 -14 6 -6 3 7 2 16 -1 19 -3 4 -6 -2 -5 -13z"/>
<path d="M8345 220 c3 -5 10 -10 16 -10 5 0 9 5 9 10 0 6 -7 10 -16 10 -8 0
-12 -4 -9 -10z"/>
<path d="M5960 140 c0 -5 4 -10 9 -10 6 0 13 5 16 10 3 6 -1 10 -9 10 -9 0
-16 -4 -16 -10z"/>
</g>
</svg>
